<?xml version="1.0" encoding="UTF-8"?>
<svg xmlns="http://www.w3.org/2000/svg" viewBox="0 0 300 300">
  <path fill="#3D2314" d="M237.9,119.6c-0.4-8.2-5.1-15.3-11.8-19.2c-2.6-1.5-5.5-2.5-8.5-2.9c-0.9-0.1-1.9-0.2-2.8-0.2h-0.1
  c-3.7,0-7.3,1-10.4,2.8c-5.9,3.4-10.5,9.4-12.1,16.1c-0.2,0.9-0.3,1.9-0.4,2.9c-0.1,0.8-0.1,1.6-0.1,2.4c0,0,0,0.1,0,0.1
  c0,0.1,0,0.2,0,0.3c0,0.2,0,0.3,0,0.5c0,10.9,7.2,20.5,17.6,23.7c2.2,0.7,4.5,1,6.8,1.1c1,0,1.9,0,2.9-0.1c3.6-0.4,7-1.5,10.1-3.2
  c7.1-4,11.8-11.3,12.4-19.5C242.1,124.1,241.4,120.4,237.9,119.6z"/>
  <path fill="#3D2314" d="M180.9,51.4c-4.8-2.7-10.6-1.1-13.5,3.8c-1.1,1.9-1.7,4-1.7,6.2c0,0.8,0.1,1.5,0.2,2.3
  c0.3,2.1,1,4.1,2.2,5.9c2.1,3.3,5.8,5.3,9.8,5.3c2.1,0,4.1-0.6,5.9-1.7c6.1-3.5,8.2-11.3,4.7-17.4C186.5,53.4,183.9,52,180.9,51.4z"
  />
  <path fill="#3D2314" d="M92.3,134.1c-2-0.8-4.2-1.2-6.4-1.2H74c-9.6,0-17.4,7.8-17.4,17.4c0,9.6,7.8,17.4,17.4,17.4h10.7
  c7,0,13.5-3.8,16.9-9.9c0.7-1.3,1.3-2.6,1.7-4.1c0.4-1.4,0.6-2.9,0.6-4.4c0-0.7-0.1-1.3-0.1-2C103.2,141.3,98.7,136.6,92.3,134.1z"
  />
  <path fill="#3D2314" d="M69.1,94.7c2.5-1.9,4.4-4.5,5.4-7.6c1.9-5.9-0.6-12.3-6-15.6c-1.3-0.8-2.8-1.4-4.3-1.8
  c-0.9-0.2-1.9-0.3-2.8-0.3c-1.8,0-3.6,0.4-5.3,1.2c-4.5,2.1-7.5,6.5-7.8,11.4c-0.1,1.3,0,2.5,0.3,3.8c0.5,3,2.2,5.8,4.6,7.7
  c2.4,1.9,5.4,2.9,8.5,2.9c0.5,0,0.9,0,1.4-0.1C65.2,96,67.2,95.6,69.1,94.7z"/>
  <path fill="#3D2314" d="M214,173.5c-7.6-27.3-25.1-48.3-42.3-48.3c-11.3,0-22.2,10.5-30.2,28.9c-8.7-21.5-21.9-34.1-35-34.1
  c-19.7,0-36.8,25.6-43.3,61.9c-1.6,9.1,4.5,17.8,13.5,19.4c1,0.2,2,0.3,2.9,0.3c8,0,15-5.6,16.6-13.8c4.3-24.3,14.7-40,26-36.5
  c7.3,2.3,14.2,13.6,18.7,30.6c1.2,4.6,5.3,7.7,9.9,7.7c0.9,0,1.7-0.1,2.6-0.3c5.4-1.4,8.7-7,7.3-12.5c-0.1-0.5-0.2-1-0.4-1.6
  c-0.2-1-0.5-2-0.8-3c3.9-13.9,9.7-22.3,15.2-22.3c7.2,0,15.3,12.8,19.8,31.2c1.4,5.7,6.6,9.5,12.2,9.5c1,0,2-0.1,3-0.4
  C217.8,188.7,215.9,180.3,214,173.5z"/>
  <path fill="#B78165" d="M239.4,187.6c-0.7-0.9-5.4-6.1-15.2-7.8c-8.3-1.4-19.1,0.5-32.1,5.6c-13.8,5.4-22.9,2.7-26,1.2
  c-0.8-0.4-1.4-0.7-1.5-0.8c-0.1,0-0.1-0.1-0.2-0.1c-8.5-3.8-14.6-4-16.9-3.6c-1.2,0.2-3.1,0.9-3.1,2.4c0,0.1,0,0.1,0,0.1
  c0,0.1,0,0.2,0,0.3c0,0.4,0.2,0.9,0.7,1.3c0.5,0.6,1.3,1.1,2.3,1.7c2,1.2,5,2.7,8.2,4.1c1.5,0.8,23.2,11.7,39.7,11.7c1.3,0,2.6-0.1,3.9-0.2
  c8.7-0.9,25.4-3.9,36.7-10.5C239.5,191.3,241.1,189.8,239.4,187.6z"/>
  <path fill="#3D2314" d="M61.9,216.3c-3-1.3-6.5-1.3-9.5,0l-0.1,0.1c-3,1.3-5.3,3.7-6.6,6.7c-1.3,3-1.3,6.4,0,9.5
  c1.3,3,3.7,5.3,6.7,6.6l0.1,0l0.2,0.1c1.5,0.6,3,0.9,4.6,0.9c1.6,0,3.2-0.3,4.7-0.9c3-1.3,5.3-3.7,6.6-6.7c1.3-3,1.3-6.4,0-9.5
  C67.3,220,64.9,217.6,61.9,216.3z"/>
  <path fill="#3D2314" d="M83.7,223.1c-3-1.3-6.5-1.3-9.5,0l-0.1,0.1c-3,1.3-5.3,3.7-6.6,6.7c-1.3,3-1.3,6.4,0,9.5
  c1.3,3,3.7,5.3,6.7,6.6l0.1,0l0.1,0c1.5,0.6,3.1,0.9,4.7,0.9c1.6,0,3.1-0.3,4.7-0.9c3-1.3,5.3-3.7,6.6-6.7c1.3-3,1.3-6.4,0-9.5
  C89.1,226.8,86.7,224.4,83.7,223.1z"/>
  <path fill="#3D2314" d="M149.9,245.6c-4.5-1.4-9.2,1.2-10.6,5.7l-16,52.7c-0.7,2.2-0.5,4.5,0.5,6.5c1,2,2.7,3.5,4.9,4.2
  c0.8,0.3,1.7,0.4,2.6,0.4c3.6,0,6.9-2.3,8-5.9l16-52.7C157,251.7,154.4,247,149.9,245.6z"/>
  <path fill="#3D2314" d="M166,234.8c-4.5-1.4-9.2,1.2-10.6,5.7l-13.5,44.6c-0.7,2.2-0.5,4.5,0.5,6.5c1,2,2.7,3.5,4.9,4.2
  c0.8,0.3,1.7,0.4,2.6,0.4c3.6,0,6.9-2.3,8-5.9l13.5-44.6C173.1,240.9,170.4,236.2,166,234.8z"/>
  <path fill="#3D2314" d="M225.5,241.5c-0.8-2.1-2.3-3.9-4.4-4.9l-35.9-18.1c-2.1-1.1-4.5-1.2-6.7-0.4c-2.1,0.8-3.9,2.3-4.9,4.4
  c-2.1,4.1-0.5,9.1,3.6,11.2l35.9,18.1c1.2,0.6,2.5,0.9,3.8,0.9c1,0,2-0.2,2.9-0.5c2.1-0.8,3.9-2.3,4.9-4.4
  C226.5,246,226.3,243.7,225.5,241.5z"/>
  <path fill="#3D2314" d="M53.1,72.9c3.2-8.9,17.8-25,18.8-26.1c2-2,2.8-5,2-7.8c-0.8-2.8-3-4.9-5.8-5.7c-3.8-1-13.8-1.8-25.5,7.3
  c-6.3,4.9-14.2,14.8-15.8,26.5c-1.3,9.7,2.4,18.9,10.2,25.3C45.2,87.4,51.1,78.9,53.1,72.9z"/>
  <path fill="#3D2314" d="M173.6,94.8c-3-1.2-6.4-1.1-9.3,0.4c-2.9,1.5-5.1,4-6.3,7c-1.2,3-1.1,6.4,0.4,9.3c1.5,2.9,4,5.1,7,6.3
  c1.4,0.6,3,0.9,4.5,0.9c1.6,0,3.2-0.3,4.8-1c2.9-1.5,5.1-4,6.3-7c1.2-3,1.1-6.4-0.4-9.3C179.1,98.2,176.5,96,173.6,94.8z"/>
  <path fill="#3D2314" d="M260.3,63.2c-6.2-9.2-17.4-17.6-39.1-12.3c-1.1,0.3-27.6,6.8-44.2,19.5c-8.7,6.6-13.6,13.6-15.3,15.7
  c-6.2-3.4-13.8-3.1-19.7,1.2c-6.2,4.6-8.6,12.8-6.1,20.1c0.8,2.3,2.1,4.3,3.7,6c-1.3,4.1-2.4,8.6-3.5,13.3
  c-14.8-10.7-31.4-10.9-31.8-10.9c-0.1,0-0.1,0-0.2,0c-0.5,0-0.9,0-1.4,0c-9.2,0-16.6,7.5-16.6,16.6c0,8.2,6,15.1,13.9,16.4
  c0.9,0.1,1.8,0.2,2.7,0.2H93c6.8,0,13.1-3.9,16.2-9.9c0.3-0.6,0.6-1.3,0.9-2c31.3-5.7,37.4-44.2,37.8-46.4
  c7.1-7.1,35.6-25.1,49.3-25.1c1,0,1.9,0.1,2.7,0.3c-7.1,5.2-15,12.4-16.4,21.2c-1.8,11,4.9,20.9,15.2,22.5c1.1,0.2,2.1,0.3,3.1,0.3
  c1.5,0,2.9-0.1,4.3-0.4c9.9-1.9,17.5-9.5,20.2-20.1c11.7-0.8,19.1-9.1,22-15.4C256,74.3,264.5,69.5,260.3,63.2z"/>
</svg>